# xmcd CD database file
#
# Track frame offsets:
#	183
#	42530
#	47195
#	60748
#	75183
#	79880
#	94730
#	107125
#	122193
#	142318
#	154008
#	168440
#	181333
#	194583
#	208893
#	226985
#	247933
#	268788
#	286655
#	301823
#	314788
#
# Disc length: 4366 seconds
#
# Revision: 0
# Processed by: cddbd v1.5.2PL0 Copyright (c) Steve Scherf et al.
# Submitted via: jetAudio 7
#
DISCID=32110c15
DTITLE=Millöcker - Fall - The Dubarry - Anny Ahlers - Madame Pompadour
DYEAR=1900
DGENRE=classical
TTITLE0=The Dubarry - Orchestral Pot-Pourri
TTITLE1=Today
TTITLE2=Without Your Love
TTITLE3=If I Am Dreaming
TTITLE4=Happy Little Jeanne
TTITLE5=I Give My Heart
TTITLE6=Beauty
TTITLE7=The Road To Happiness
TTITLE8=Forlane
TTITLE9=The Dubarry
TTITLE10=The Dubarry
TTITLE11=Anny Ahlers - I Should Like To Be Really In Love
TTITLE12=Is Your Heart Still Free
TTITLE13=Madame Pompadour - Carnival Time
TTITLE14=Love Me Now
TTITLE15=By The Light Of The Moon
TTITLE16=Love's Sentry
TTITLE17=Madame Pompadour
TTITLE18=Joseph
TTITLE19=Reminiscence
TTITLE20=Two Little Birds
EXTD=
EXTT0=
EXTT1=
EXTT2=
EXTT3=
EXTT4=
EXTT5=
EXTT6=
EXTT7=
EXTT8=
EXTT9=
EXTT10=
EXTT11=
EXTT12=
EXTT13=
EXTT14=
EXTT15=
EXTT16=
EXTT17=
EXTT18=
EXTT19=
EXTT20=
PLAYORDER=
